<?xml version="1.0" encoding="UTF-8" standalone="no"?>
<svg
   xmlns:dc="http://purl.org/dc/elements/1.1/"
   xmlns:cc="http://creativecommons.org/ns#"
   xmlns:rdf="http://www.w3.org/1999/02/22-rdf-syntax-ns#"
   xmlns:svg="http://www.w3.org/2000/svg"
   xmlns="http://www.w3.org/2000/svg"
   xmlns:sodipodi="http://sodipodi.sourceforge.net/DTD/sodipodi-0.dtd"
   xmlns:inkscape="http://www.inkscape.org/namespaces/inkscape"
   width="32.743538mm"
   height="39.123638mm"
   viewBox="0 0 32.743538 39.123638"
   version="1.1"
   id="svg8"
   inkscape:version="1.0.1 (0767f8302a, 2020-10-17)"
   sodipodi:docname="canale data.svg">
  <defs
     id="defs2" />
  <sodipodi:namedview
     id="base"
     pagecolor="#ffffff"
     bordercolor="#666666"
     borderopacity="1.0"
     inkscape:pageopacity="0.0"
     inkscape:pageshadow="2"
     inkscape:zoom="4.2440062"
     inkscape:cx="140.06621"
     inkscape:cy="116.11601"
     inkscape:document-units="mm"
     inkscape:current-layer="layer1"
     inkscape:document-rotation="0"
     showgrid="false"
     inkscape:window-width="1855"
     inkscape:window-height="1056"
     inkscape:window-x="1985"
     inkscape:window-y="24"
     inkscape:window-maximized="1"
     fit-margin-top="0"
     fit-margin-left="0"
     fit-margin-right="0"
     fit-margin-bottom="0" />
  <metadata
     id="metadata5">
    <rdf:RDF>
      <cc:Work
         rdf:about="">
        <dc:format>image/svg+xml</dc:format>
        <dc:type
           rdf:resource="http://purl.org/dc/dcmitype/StillImage" />
        <dc:title />
      </cc:Work>
    </rdf:RDF>
  </metadata>
  <g
     inkscape:label="Livello 1"
     inkscape:groupmode="layer"
     id="layer1"
     transform="translate(-7.4262151,-1.6597482)">
    <path
       style="font-variation-settings:normal;opacity:1;vector-effect:none;fill:#d5e5ff;fill-opacity:1;stroke:#000000;stroke-width:0.166613px;stroke-linecap:butt;stroke-linejoin:miter;stroke-miterlimit:4;stroke-dasharray:none;stroke-dashoffset:0;stroke-opacity:1;paint-order:normal;stop-color:#000000;stop-opacity:1"
       d="m 30.403849,15.134561 v -3.415567 h 52.816332 52.816329 v 3.415567 3.415568 H 83.220181 30.403849 Z"
       id="path1181"
       transform="scale(0.26458333)" />
    <path
       style="font-variation-settings:normal;opacity:1;vector-effect:none;fill:#ffeeaa;fill-opacity:1;stroke:#000000;stroke-width:0.044083px;stroke-linecap:butt;stroke-linejoin:miter;stroke-miterlimit:4;stroke-dasharray:none;stroke-dashoffset:0;stroke-opacity:1;paint-order:normal;stop-color:#000000;stop-opacity:1"
       d="m 8.0443516,33.582872 v -3.284185 h 13.9743214 13.97432 v 3.284185 3.284186 H 22.018673 8.0443516 Z"
       id="path1177" />
    <path
       style="font-variation-settings:normal;opacity:1;vector-effect:none;fill:#ffeeaa;fill-opacity:1;stroke:#000000;stroke-width:0.044083px;stroke-linecap:butt;stroke-linejoin:miter;stroke-miterlimit:4;stroke-dasharray:none;stroke-dashoffset:0;stroke-opacity:1;paint-order:normal;stop-color:#000000;stop-opacity:1"
       d="M 8.0443516,20.226055 V 16.94187 h 13.9743214 13.97432 v 3.284185 3.284186 H 22.018673 8.0443516 Z"
       id="path1179" />
    <path
       style="font-variation-settings:normal;opacity:1;vector-effect:none;fill:#aaccff;fill-opacity:1;stroke:#000000;stroke-width:0.166613px;stroke-linecap:butt;stroke-linejoin:miter;stroke-miterlimit:4;stroke-dasharray:none;stroke-dashoffset:0;stroke-opacity:1;stop-color:#000000;stop-opacity:1"
       d="m 30.403849,54.955077 v -8.413959 h 52.816332 52.816329 v 8.413959 8.413958 H 83.220181 30.403849 Z"
       id="path1169"
       transform="scale(0.26458333)" />
    <path
       style="font-variation-settings:normal;opacity:1;vector-effect:none;fill:#aaccff;fill-opacity:1;stroke:#000000;stroke-width:0.166613px;stroke-linecap:butt;stroke-linejoin:miter;stroke-miterlimit:4;stroke-dasharray:none;stroke-dashoffset:0;stroke-opacity:1;stop-color:#000000;stop-opacity:1"
       d="M 30.403849,27.380619 V 19.71642 h 52.816332 52.816329 v 7.664199 7.6642 H 83.220181 30.403849 Z"
       id="path1171"
       transform="scale(0.26458333)" />
    <rect
       style="fill:none;stroke:#3c3c3b;stroke-width:0.2;stroke-linejoin:round;stroke-miterlimit:4;stroke-dasharray:none;stroke-dashoffset:0"
       id="rect10"
       width="28.166332"
       height="37.718216"
       x="7.9311223"
       y="2.9651701" />
    <path
       style="fill:none;stroke:#000000;stroke-width:0.264583px;stroke-linecap:butt;stroke-linejoin:miter;stroke-opacity:1"
       d="M 7.9234997,5.0548815 H 36.069751"
       id="path837" />
    <path
       style="fill:none;stroke:#000000;stroke-width:0.264645px;stroke-linecap:butt;stroke-linejoin:miter;stroke-opacity:1"
       d="M 7.9182642,9.4077876 H 36.077691"
       id="path837-3" />
    <path
       style="fill:none;stroke:#000000;stroke-width:0.264644px;stroke-linecap:butt;stroke-linejoin:miter;stroke-opacity:1"
       d="M 7.9791834,12.150873 H 36.138615"
       id="path837-3-6" />
    <path
       style="fill:none;stroke:#000000;stroke-width:0.264644px;stroke-linecap:butt;stroke-linejoin:miter;stroke-opacity:1"
       d="M 7.9791809,16.913376 H 36.138617"
       id="path837-3-6-7" />
    <ellipse
       style="fill:none;stroke:#3c3c3b;stroke-width:0.2;stroke-linejoin:round;stroke-miterlimit:4;stroke-dasharray:none;stroke-dashoffset:0"
       id="path899"
       cx="21.522657"
       cy="9.8633938"
       rx="0.12234931"
       ry="0.087587781" />
    <ellipse
       style="fill:none;stroke:#3c3c3b;stroke-width:0.2;stroke-linejoin:round;stroke-miterlimit:4;stroke-dasharray:none;stroke-dashoffset:0"
       id="path901"
       cx="21.576551"
       cy="10.250736"
       rx="0.099960074"
       ry="0.12510136" />
    <ellipse
       style="fill:none;stroke:#3c3c3b;stroke-width:0.2;stroke-linejoin:round;stroke-miterlimit:4;stroke-dasharray:none;stroke-dashoffset:0"
       id="path903"
       cx="21.531767"
       cy="10.885569"
       rx="0.14334588"
       ry="0.061001521" />
    <ellipse
       style="fill:none;stroke:#3c3c3b;stroke-width:0.2;stroke-linejoin:round;stroke-miterlimit:4;stroke-dasharray:none;stroke-dashoffset:0"
       id="path905"
       cx="21.550091"
       cy="11.441659"
       rx="0.14138243"
       ry="0.10847115" />
    <ellipse
       style="fill:none;stroke:#3c3c3b;stroke-width:0.2;stroke-linejoin:round;stroke-miterlimit:4;stroke-dasharray:none;stroke-dashoffset:0"
       id="path907"
       cx="21.485647"
       cy="11.90632"
       rx="0.0612089"
       ry="0.10358539" />
    <text
       xml:space="preserve"
       style="font-size:1.52493px;line-height:1.25;font-family:'Ubuntu Mono';-inkscape-font-specification:'Ubuntu Mono';stroke-width:0.142962"
       x="7.3588033"
       y="2.6244178"
       id="text919"
       transform="scale(0.99963185,1.0003683)"><tspan
         sodipodi:role="line"
         x="7.3588033"
         y="2.6244178"
         style="stroke-width:0.142962"
         id="tspan921">+0</tspan></text>
    <text
       xml:space="preserve"
       style="font-size:1.52493px;line-height:1.25;font-family:'Ubuntu Mono';-inkscape-font-specification:'Ubuntu Mono';stroke-width:0.142962"
       x="35.056198"
       y="2.8132732"
       id="text919-5"
       transform="scale(0.99963184,1.0003683)"><tspan
         sodipodi:role="line"
         x="35.056198"
         y="2.8132732"
         style="stroke-width:0.142962"
         id="tspan921-3">+8</tspan></text>
    <text
       xml:space="preserve"
       style="font-size:2.05333px;line-height:1.25;font-family:'Ubuntu Mono';-inkscape-font-specification:'Ubuntu Mono';fill:#112b00;stroke-width:0.192499"
       x="19.504866"
       y="4.7038465"
       id="text945"
       transform="scale(1.0243682,0.97621149)"><tspan
         sodipodi:role="line"
         id="tspan943"
         x="19.504866"
         y="4.7038465"
         style="fill:#112b00;stroke-width:0.192499">l1</tspan></text>
    <text
       xml:space="preserve"
       style="font-size:2.11667px;line-height:1.25;font-family:'Ubuntu Mono';-inkscape-font-specification:'Ubuntu Mono';stroke-width:0.264583"
       x="11.191246"
       y="7.7937579"
       id="text949"><tspan
         sodipodi:role="line"
         id="tspan947"
         x="11.191246"
         y="7.7937579"
         style="stroke-width:0.264583">aggiornamento stato[0]</tspan></text>
    <text
       xml:space="preserve"
       style="font-size:2.11667px;line-height:1.25;font-family:'Ubuntu Mono';-inkscape-font-specification:'Ubuntu Mono';letter-spacing:-0.0661458px;word-spacing:0px;stroke-width:0.264583"
       x="8.8903456"
       y="14.78573"
       id="text953"><tspan
         sodipodi:role="line"
         id="tspan951"
         x="8.8903456"
         y="14.78573"
         style="stroke-width:0.264583"
         dx="0 0 0 0 0 0 0 0 0 0">aggiornamento stato[l1-1]</tspan></text>
    <path
       style="fill:none;stroke:#000000;stroke-width:0.223955px;stroke-linecap:butt;stroke-linejoin:miter;stroke-opacity:1"
       d="m 36.325637,5.0738992 c 0.136849,0.054016 0.271284,0.122028 0.410546,0.1620481 0.01624,0.00468 0.02826,-0.026671 0.04451,-0.031276 0.114424,-0.0324 0.421244,-0.020043 0.535365,0 0.06071,0.010664 0.123345,0.024105 0.178068,0.062553 0.03608,0.02535 0.05281,0.073467 0.08846,0.093426 0.02141,0.011989 0.107076,0.025581 0.133551,0.062553 0.09165,0.1279864 0.175495,0.3551422 0.200054,0.5622026 0.01428,0.1203925 -0.02502,0.086056 0.02226,0.2189341 0.0094,0.026374 0.03673,0.035174 0.04452,0.062553 0.02021,0.070978 0.0116,0.8219681 0,0.9029946 -0.0033,0.022855 -0.01953,0.039558 -0.02226,0.062553 -0.0097,0.082269 0.0074,0.1674512 0,0.2502103 -0.0115,0.1292957 -0.07228,0.2251778 -0.08947,0.3452751 -0.0088,0.061324 0.0049,0.1254877 0,0.1876578 -0.01228,0.1552706 -0.08487,0.3194559 -0.111988,0.4706645 -0.0054,0.030328 0.0036,0.062978 0,0.093829 -0.01272,0.1072181 -0.057,0.2028777 -0.06677,0.3127628 -0.0037,0.04138 0.0085,0.085163 0,0.1251051 -0.03809,0.1783995 -0.113552,0.3531872 -0.155808,0.5316966 -0.08098,0.05046 -0.01164,0.1279086 -0.02269,0.1903349 -0.02742,0.154864 -0.05703,0.2159361 -0.110749,0.3417423 -0.01942,0.04549 -0.03288,0.178038 -0.04451,0.218934 -0.05005,0.175818 -0.09737,0.33642 -0.157864,0.505237 -0.02224,0.06205 -0.01525,0.341119 0,0.405361 0.01717,0.07241 0.102783,0.224855 0.154837,0.249234 0.0806,0.03775 0.18468,-0.01352 0.26346,0.03087 0.01948,0.01098 0.02505,0.05153 0.04451,0.06255 0.04002,0.02267 0.156495,0 0.198109,0 0.01387,0 0.188421,8.77e-4 0.17547,0.02762 -0.0048,0.0098 -0.136751,0.06281 -0.165476,0.09305 -0.05244,0.0552 -0.09413,0.180976 -0.133551,0.25021 -0.06316,0.110934 -0.223923,0.228348 -0.244843,0.375317 -0.01277,0.0897 -0.02145,0.596528 0,0.656801 0.01407,0.03956 0.05058,0.0559 0.06677,0.09382 0.02519,0.05901 0.04348,0.330206 0.06677,0.406593 0.06175,0.202451 0.03773,-0.02596 0.06677,0.218934 0.0096,0.0808 -0.0082,0.169304 0,0.25021 0.0065,0.06399 0.01322,0.230751 0.02226,0.281485 0.0097,0.05446 0.03585,0.101577 0.04451,0.156382 0.01523,0.09624 0,0.245245 0,0.344039 0,0.271061 0,0.542122 0,0.813184 0,0.163962 0.01413,0.33773 -0.02226,0.490523 -0.01772,0.07442 0.01767,0.173789 0,0.248247 -0.0034,0.01399 -0.01483,0.02085 -0.02226,0.03128 -0.0074,0.03127 -0.01655,0.06185 -0.02226,0.09383 -0.01028,0.05758 0.01332,0.130712 0,0.186829 -0.0066,0.02797 -0.03508,0.03621 -0.04451,0.06255 -0.0085,0.02364 0.0083,0.06502 0,0.08875 -0.02432,0.06904 -0.08223,0.144523 -0.129009,0.180695 -0.01725,0.01333 -0.04049,-0.0092 -0.05905,0 -0.04409,0.02184 -0.08445,0.09023 -0.129977,0.122599 -0.03664,0.02605 -0.09772,0.0046 -0.13311,0.03128 -0.02388,0.01796 -0.08081,0.08532 -0.110042,0.06924 -0.05278,-0.02902 -0.105714,-0.0772 -0.145044,-0.132462"
       id="path955" />
    <text
       xml:space="preserve"
       style="font-size:2.11667px;line-height:1.25;font-family:'Ubuntu Mono';-inkscape-font-specification:'Ubuntu Mono';stroke-width:0.264583"
       x="-13.929339"
       y="39.680267"
       id="text959"
       transform="rotate(-90)"><tspan
         sodipodi:role="line"
         id="tspan957"
         x="-13.929339"
         y="39.680267"
         style="stroke-width:0.264583">l1*3</tspan></text>
    <path
       style="fill:none;stroke:#000000;stroke-width:0.264583px;stroke-linecap:butt;stroke-linejoin:miter;stroke-opacity:1"
       d="M 7.9422347,23.670443 H 36.088494"
       id="path837-0-0" />
    <text
       xml:space="preserve"
       style="font-size:2.11667px;line-height:1.25;font-family:'Ubuntu Mono';-inkscape-font-specification:'Ubuntu Mono';letter-spacing:-0.0661458px;word-spacing:0px;stroke-width:0.264583"
       x="15.49846"
       y="20.840601"
       id="text953-7"><tspan
         sodipodi:role="line"
         id="tspan951-8"
         x="15.49846"
         y="20.840601"
         style="stroke-width:0.264583">nuova voce</tspan></text>
    <path
       style="fill:none;stroke:#000000;stroke-width:0.264644px;stroke-linecap:butt;stroke-linejoin:miter;stroke-opacity:1"
       d="M 7.9791835,30.142551 H 36.138616"
       id="path837-3-6-3" />
    <text
       xml:space="preserve"
       style="font-size:2.11667px;line-height:1.25;font-family:'Ubuntu Mono';-inkscape-font-specification:'Ubuntu Mono';letter-spacing:-0.0661458px;word-spacing:0px;stroke-width:0.264583"
       x="15.572577"
       y="34.789898"
       id="text953-7-9"><tspan
         sodipodi:role="line"
         id="tspan951-8-7"
         x="15.572577"
         y="34.789898"
         style="stroke-width:0.264583">nuova voce</tspan></text>
    <path
       style="font-variation-settings:normal;opacity:1;vector-effect:none;fill:#d5e5ff;fill-opacity:1;stroke:#000000;stroke-width:0.166613px;stroke-linecap:butt;stroke-linejoin:miter;stroke-miterlimit:4;stroke-dasharray:none;stroke-dashoffset:0;stroke-opacity:1;stop-color:#000000;stop-opacity:1"
       d="M 30.403849,40.792969 V 36.21111 h 52.816332 52.816329 v 4.581859 4.581858 H 108.96189 81.887277 v -0.38321 c 0,-0.482592 -0.293649,-0.783081 -0.765256,-0.783081 -0.37577,0 -0.567649,0.286201 -0.567649,0.846692 0,0.313641 -0.467456,0.319599 -25.075261,0.319599 H 30.403849 Z m 51.783331,3.049018 c 0.367422,-0.367422 0.241118,-1.121349 -0.22331,-1.332956 -0.901856,-0.410913 -1.830304,0.429383 -1.304256,1.180422 0.277184,0.395735 1.192924,0.487176 1.527566,0.152534 z m -0.123965,-2.273308 c 0.456518,-0.369665 0.35095,-0.793634 -0.254974,-1.024007 -0.441637,-0.167909 -1.131864,-5.99e-4 -1.331745,0.322817 -0.168359,0.272412 0.05876,0.811281 0.377278,0.895121 0.569859,0.150001 0.837752,0.107044 1.209441,-0.193931 z m -0.03051,-2.129192 c 0.316358,-0.221586 0.366404,-0.364688 0.276776,-0.791412 -0.06018,-0.286503 -0.104061,-0.77474 -0.09752,-1.084971 0.01554,-0.737396 -0.239204,-1.018768 -0.92237,-1.018768 -0.389802,0 -0.611399,0.101866 -0.738588,0.33952 -0.195999,0.366229 -0.07683,0.993385 0.188759,0.993385 0.09632,0 0.1177,0.241123 0.05229,0.589809 -0.08322,0.443578 -0.03738,0.670773 0.184886,0.916371 0.359386,0.397117 0.554091,0.407457 1.055773,0.05607 z"
       id="path1167"
       transform="scale(0.26458333)" />
    <path
       style="fill:#fff6d5;fill-opacity:1;stroke:#000000;stroke-width:0.0349158px;stop-color:#000000"
       d="M 8.0462346,26.90469 V 23.807345 H 22.020556 35.994878 v 3.097345 3.097345 H 22.020556 8.0462346 Z"
       id="path878" />
    <ellipse
       style="fill:#000000;fill-opacity:1;stroke:#000000;stroke-width:0.264583px;stop-color:#000000"
       id="path880"
       cx="20.305622"
       cy="25.231977"
       rx="0.45638746"
       ry="0.46395618" />
    <ellipse
       style="fill:#000000;fill-opacity:1;stroke:#000000;stroke-width:0.264583px;stop-color:#000000"
       id="path882"
       cx="20.245697"
       cy="27.263748"
       rx="0.41524258"
       ry="0.47413477" />
    <ellipse
       style="fill:#000000;fill-opacity:1;stroke:#000000;stroke-width:0.264583px;stop-color:#000000"
       id="path884"
       cx="20.192945"
       cy="29.090366"
       rx="0.49025154"
       ry="0.53559917" />
    <path
       style="fill:#ffd5d5;stroke:#000000;stroke-width:0.264644px;stroke-linecap:butt;stroke-linejoin:miter;stroke-opacity:1"
       d="M 7.9791835,37.021721 H 36.138615"
       id="path837-3-6-3-6" />
    <path
       style="fill:#ffd5d5;fill-opacity:1;stroke:#000000;stroke-width:0.117813px;stop-color:#000000"
       d="M 2.3056816,140.63272 V 134.2119 H 55.144906 107.98413 v 6.42082 6.42082 H 55.144906 2.3056816 Z"
       id="path920"
       transform="matrix(0.26458333,0,0,0.26458333,7.4262151,1.6597482)" />
    <text
       xml:space="preserve"
       style="font-size:2.11667px;line-height:1.25;font-family:'Ubuntu Mono';-inkscape-font-specification:'Ubuntu Mono';stroke-width:0.264583"
       x="10.608068"
       y="39.476936"
       id="text924"><tspan
         sodipodi:role="line"
         id="tspan922"
         x="10.608068"
         y="39.476936"
         style="stroke-width:0.264583">EOF (cioè close socket)</tspan></text>
    <path
       style="fill:none;stroke:#000000;stroke-width:0.264583px;stroke-linecap:butt;stroke-linejoin:miter;stroke-opacity:1"
       d="m 36.653701,17.688383 c 0.104058,-0.05124 0.126082,-0.263665 0.232325,-0.299132 0.148305,-0.04951 0.373648,0.231257 0.429681,0.341446 0.0045,0.0088 0.014,0.014 0.02101,0.021 0.01468,0.01469 0.03479,0.02549 0.04408,0.04408 0.05447,0.108947 -0.04891,-0.0048 0.02204,0.06612"
       id="path926" />
    <path
       style="fill:none;stroke:#000000;stroke-width:0.264583px;stroke-linecap:butt;stroke-linejoin:miter;stroke-opacity:1"
       d="m 36.364686,17.292818 c 0.374105,0 0.74821,0 1.122315,0 0.06909,0 0.286644,0.03245 0.339384,-0.02028"
       id="path928" />
    <path
       style="fill:none;stroke:#000000;stroke-width:0.264583px;stroke-linecap:butt;stroke-linejoin:miter;stroke-opacity:1"
       d="m 36.653701,17.688383 c 0.107289,-0.03431 0.209346,-0.09776 0.321868,-0.102914 0.03908,-0.0018 -0.02347,0.125865 0,0.264498 0.01423,0.08408 0.05813,0.16199 0.06755,0.246741 0.01455,0.130936 0.01569,0.291763 0.04408,0.418789 0.04721,0.21117 0.04448,0.05379 0.04448,0.132767 0,0.05843 -0.0043,-0.03617 0.02101,0.03908 0.0089,0.02666 -0.0047,0.05664 0,0.08438 0.01373,0.08166 0.03256,0.161837 0.04408,0.242456 0.02008,0.140491 0,0.298549 0,0.440831 0,0.168644 0.01688,0.354639 0,0.523449 -0.003,0.03014 -0.01905,0.05802 -0.02204,0.08817 -0.0044,0.0444 0.0087,0.0901 0,0.13385 -0.0065,0.03258 -0.038,0.0566 -0.04449,0.08918 -0.01461,0.07333 -0.01172,0.149192 -0.02244,0.223195 -0.01624,0.112303 0,0.238844 0,0.352664 0,0.236694 0,0.473388 0,0.710082 0,0.109662 -0.01127,0.200826 -0.02204,0.308582 -0.01508,0.150919 0,0.309637 0,0.462027 0,0.315802 0,0.711174 0,0.980015"
       id="path930" />
    <path
       style="fill:none;stroke:#000000;stroke-width:0.264583px;stroke-linecap:butt;stroke-linejoin:miter;stroke-opacity:1"
       d="m 36.625494,22.755785 c 0.138729,0.0816 0.397407,0.692251 0.546841,0.728873 0.08883,0.02177 0.198826,-0.13841 0.265961,-0.178958 0.0362,-0.02187 0.0828,-0.02396 0.11724,-0.04851 0.04682,-0.03337 0.07631,-0.08701 0.12196,-0.121962 0.01844,-0.01412 0.04798,-0.0075 0.06612,-0.02204 0.06915,-0.05532 0.01709,-0.105256 0.06612,-0.154291"
       id="path932" />
    <path
       style="fill:none;stroke:#000000;stroke-width:0.264583px;stroke-linecap:butt;stroke-linejoin:miter;stroke-opacity:1"
       d="m 36.088493,23.670443 c 0.300183,0.1122 0.619508,0.147434 0.939085,0.11858 0.135544,-0.01224 0.268277,-0.05437 0.403853,-0.06654 0.203467,-0.01827 0.417501,0 0.621665,0"
       id="path934" />
    <text
       xml:space="preserve"
       style="font-size:2.11667px;line-height:1.25;font-family:'Ubuntu Mono';-inkscape-font-specification:'Ubuntu Mono';stroke-width:0.264583"
       x="38.319244"
       y="20.684959"
       id="text938"><tspan
         sodipodi:role="line"
         id="tspan936"
         x="38.319244"
         y="20.684959"
         style="stroke-width:0.264583">4</tspan></text>
  </g>
</svg>
